<?xml version="1.0" encoding="UTF-8" standalone="no"?>
<svg width="410px" height="409px" viewBox="0 0 410 409" version="1.1" xmlns="http://www.w3.org/2000/svg" xmlns:xlink="http://www.w3.org/1999/xlink" xmlns:sketch="http://www.bohemiancoding.com/sketch/ns">
    <!-- Generator: Sketch 3.5.2 (25235) - http://www.bohemiancoding.com/sketch -->
    <title>spin</title>
    <desc>Created with Sketch.</desc>
    <defs>
        <radialGradient cx="50.0008389%" cy="50.0028523%" fx="50.0008389%" fy="50.0028523%" r="50.007047%" id="radialGradient-1">
            <stop stop-color="#70D080" offset="0%"></stop>
            <stop stop-color="#6DCE7D" offset="24.96%"></stop>
            <stop stop-color="#64C673" offset="44.14%"></stop>
            <stop stop-color="#55BA63" offset="61.39%"></stop>
            <stop stop-color="#3FA84C" offset="77.51%"></stop>
            <stop stop-color="#23922E" offset="92.69%"></stop>
            <stop stop-color="#13851D" offset="100%"></stop>
            <stop stop-color="#12841C" offset="100%"></stop>
            <stop stop-color="#10831A" offset="100%"></stop>
        </radialGradient>
    </defs>
    <g id="Page-1" stroke="none" stroke-width="1" fill="none" fill-rule="evenodd" sketch:type="MSPage">
        <g id="spin" sketch:type="MSLayerGroup">
            <g id="shad" fill="#FFFFFF" sketch:type="MSShapeGroup">
                <path d="M205,0 C92.2,0 0.8,91.4 0.8,204.2 C0.8,317 92.2,408.4 205,408.4 C317.8,408.4 409.2,317 409.2,204.2 C409.2,91.4 317.8,0 205,0 L205,0 Z M205,399.3 C97.2,399.3 9.9,311.9 9.9,204.2 C9.9,96.4 97.3,9.1 205,9.1 C312.8,9.1 400.1,96.5 400.1,204.2 C400.1,312 312.8,399.3 205,399.3 L205,399.3 Z" id="Shape"></path>
                <circle id="Oval" cx="205" cy="204.2" r="89.4"></circle>
            </g>
            <g id="ring" transform="translate(8.000000, 7.000000)" sketch:type="MSShapeGroup">
                <g id="Group">
                    <path d="M0.7,197.2 C0.7,222.3 5.5,247.7 15.7,272.3 C25.9,296.9 40.5,318.3 58.2,336 L197,197.2 L0.7,197.2 L0.7,197.2 Z" id="Shape" fill="#FBAE42"></path>
                    <path d="M58.2,58.4 C39.8,76.8 25.5,98.5 15.7,122.1 C5.9,145.7 0.7,171.2 0.7,197.2 L197,197.2 L58.2,58.4 L58.2,58.4 Z" id="Shape" fill="#F4D967"></path>
                    <path d="M378.3,122.1 C368.1,97.5 353.5,76.1 335.8,58.4 L197,197.2 L393.3,197.2 C393.3,172.2 388.5,146.7 378.3,122.1 L378.3,122.1 Z" id="Shape" fill="#21AEDC"></path>
                    <path d="M197,197.2 L335.8,336 C354.2,317.6 368.5,295.9 378.3,272.3 C388.1,248.7 393.3,223.2 393.3,197.2 L197,197.2 L197,197.2 Z" id="Shape" fill="#7771B3"></path>
                    <path d="M58.2,336 C76.6,354.4 98.3,368.7 121.9,378.5 C145.5,388.3 171,393.5 197,393.5 L197,197.2 L58.2,336 L58.2,336 Z" id="Shape" fill="#F36D54"></path>
                    <path d="M197,197.2 L197,393.5 C222.1,393.5 247.5,388.7 272.1,378.5 C296.7,368.3 318.1,353.7 335.8,336 L197,197.2 L197,197.2 Z" id="Shape" fill="#EE5565"></path>
                    <path d="M272.1,15.9 C248.5,6.1 223,0.9 197,0.9 L197,197.2 L335.8,58.4 C317.4,40 295.7,25.7 272.1,15.9 L272.1,15.9 Z" id="Shape" fill="#48C4EE"></path>
                    <path d="M197,0.9 C172,0.9 146.5,5.7 121.9,15.9 C97.3,26.1 75.9,40.7 58.2,58.4 L197,197.2 L197,0.9 L197,0.9 Z" id="Shape" fill="#5AC2AA"></path>
                    <path d="M109.2,233.6 C129.3,282.1 184.9,305.1 233.4,285 C281.9,264.9 304.9,209.3 284.8,160.8 C264.7,112.3 209.1,89.3 160.6,109.4 C112.1,129.5 89.1,185.1 109.2,233.6 L109.2,233.6 Z M164.2,118.1 C207.9,100 258,120.8 276.1,164.4 C294.2,208.1 273.4,258.2 229.8,276.3 C186.1,294.4 136,273.6 117.9,229.9 C99.8,186.3 120.5,136.2 164.2,118.1 L164.2,118.1 Z" id="Shape" opacity="0.5" fill="#999999"></path>
                </g>
                <circle id="Oval" fill="url(#radialGradient-1)" cx="197" cy="197.2" r="89.4"></circle>
                <g id="Group" transform="translate(141.000000, 162.000000)" fill="#B4B4B4">
                    <path d="M3.2,26.1 L7.7,20.7 C10.6,23 13.8,24.2 17.1,24.2 C19.3,24.2 20.4,23.5 20.4,22.2 L20.4,22.1 C20.4,20.9 19.4,20.2 15.5,19.3 C9.3,17.9 4.5,16.1 4.5,10.2 L4.5,10.1 C4.5,4.7 8.8,0.8 15.8,0.8 C20.7,0.8 24.6,2.1 27.8,4.7 L23.8,10.4 C21.1,8.5 18.2,7.5 15.7,7.5 C13.7,7.5 12.8,8.3 12.8,9.4 L12.8,9.5 C12.8,10.8 13.8,11.4 17.8,12.3 C24.5,13.8 28.7,15.9 28.7,21.4 L28.7,21.5 C28.7,27.4 24,31 16.9,31 C11.7,30.9 6.8,29.3 3.2,26.1 L3.2,26.1 Z" id="Shape"></path>
                    <path d="M34.2,1.3 L46.7,1.3 C54.1,1.3 58.8,5.1 58.8,11.5 L58.8,11.6 C58.8,18.5 53.5,22.1 46.3,22.1 L42.3,22.1 L42.3,30.4 L34.2,30.4 L34.2,1.3 L34.2,1.3 Z M46.1,15.8 C49,15.8 50.7,14.3 50.7,12 L50.7,11.9 C50.7,9.4 49,8.1 46,8.1 L42.2,8.1 L42.2,15.8 L46.1,15.8 L46.1,15.8 Z" id="Shape"></path>
                    <path d="M64,1.3 L72.1,1.3 L72.1,30.4 L64,30.4 L64,1.3 L64,1.3 Z" id="Shape"></path>
                    <path d="M79.1,1.3 L86.6,1.3 L98.6,16.7 L98.6,1.3 L106.6,1.3 L106.6,30.4 L99.5,30.4 L87.1,14.4 L87.1,30.4 L79.1,30.4 L79.1,1.3 L79.1,1.3 Z" id="Shape"></path>
                    <path d="M0.9,41.3 L8.4,41.3 L20.4,56.7 L20.4,41.3 L28.4,41.3 L28.4,70.4 L21.3,70.4 L8.9,54.4 L8.9,70.4 L0.9,70.4 L0.9,41.3 L0.9,41.3 Z" id="Shape"></path>
                    <path d="M34.2,56 L34.2,56 C34.2,47.6 40.9,40.8 49.9,40.8 C58.9,40.8 65.5,47.5 65.5,55.9 L65.5,56 C65.5,64.4 58.8,71.1 49.8,71.1 C40.9,71 34.2,64.3 34.2,56 L34.2,56 Z M57.4,56 L57.4,56 C57.4,51.7 54.4,48.1 49.9,48.1 C45.5,48.1 42.5,51.7 42.5,55.9 L42.5,56 C42.5,60.2 45.5,63.9 49.9,63.9 C54.4,63.7 57.4,60.2 57.4,56 L57.4,56 Z" id="Shape"></path>
                    <path d="M67.8,41.3 L76.3,41.3 L81.4,58.1 L87,41.2 L93.9,41.2 L99.5,58.1 L104.6,41.3 L113,41.3 L103.3,70.6 L96.3,70.6 L90.4,53.8 L84.6,70.6 L77.6,70.6 L67.8,41.3 L67.8,41.3 Z" id="Shape"></path>
                </g>
                <g id="Group" transform="translate(140.000000, 161.000000)" fill="#FFFFFF">
                    <path d="M3.2,26.1 L7.7,20.7 C10.6,23 13.8,24.2 17.1,24.2 C19.3,24.2 20.4,23.5 20.4,22.2 L20.4,22.1 C20.4,20.9 19.4,20.2 15.5,19.3 C9.3,17.9 4.5,16.1 4.5,10.2 L4.5,10.1 C4.5,4.7 8.8,0.8 15.8,0.8 C20.7,0.8 24.6,2.1 27.8,4.7 L23.8,10.4 C21.1,8.5 18.2,7.5 15.7,7.5 C13.7,7.5 12.8,8.3 12.8,9.4 L12.8,9.5 C12.8,10.8 13.8,11.4 17.8,12.3 C24.5,13.8 28.7,15.9 28.7,21.4 L28.7,21.5 C28.7,27.4 24,31 16.9,31 C11.7,30.9 6.8,29.3 3.2,26.1 L3.2,26.1 Z" id="Shape"></path>
                    <path d="M34.2,1.3 L46.7,1.3 C54.1,1.3 58.8,5.1 58.8,11.5 L58.8,11.6 C58.8,18.5 53.5,22.1 46.3,22.1 L42.3,22.1 L42.3,30.4 L34.2,30.4 L34.2,1.3 L34.2,1.3 Z M46.1,15.8 C49,15.8 50.7,14.3 50.7,12 L50.7,11.9 C50.7,9.4 49,8.1 46,8.1 L42.2,8.1 L42.2,15.8 L46.1,15.8 L46.1,15.8 Z" id="Shape"></path>
                    <path d="M64,1.3 L72.1,1.3 L72.1,30.4 L64,30.4 L64,1.3 L64,1.3 Z" id="Shape"></path>
                    <path d="M79.1,1.3 L86.6,1.3 L98.6,16.7 L98.6,1.3 L106.6,1.3 L106.6,30.4 L99.5,30.4 L87.1,14.4 L87.1,30.4 L79.1,30.4 L79.1,1.3 L79.1,1.3 Z" id="Shape"></path>
                    <path d="M0.9,41.3 L8.4,41.3 L20.4,56.7 L20.4,41.3 L28.4,41.3 L28.4,70.4 L21.3,70.4 L8.9,54.4 L8.9,70.4 L0.9,70.4 L0.9,41.3 L0.9,41.3 Z" id="Shape"></path>
                    <path d="M34.2,56 L34.2,56 C34.2,47.6 40.9,40.8 49.9,40.8 C58.9,40.8 65.5,47.5 65.5,55.9 L65.5,56 C65.5,64.4 58.8,71.1 49.8,71.1 C40.9,71 34.2,64.3 34.2,56 L34.2,56 Z M57.4,56 L57.4,56 C57.4,51.7 54.4,48.1 49.9,48.1 C45.5,48.1 42.5,51.7 42.5,55.9 L42.5,56 C42.5,60.2 45.5,63.9 49.9,63.9 C54.4,63.7 57.4,60.2 57.4,56 L57.4,56 Z" id="Shape"></path>
                    <path d="M67.8,41.3 L76.3,41.3 L81.4,58.1 L87,41.2 L93.9,41.2 L99.5,58.1 L104.6,41.3 L113,41.3 L103.3,70.6 L96.3,70.6 L90.4,53.8 L84.6,70.6 L77.6,70.6 L67.8,41.3 L67.8,41.3 Z" id="Shape"></path>
                </g>
            </g>
            <g id="img2" transform="translate(41.000000, 37.000000)" fill="#FFFFFF" sketch:type="MSShapeGroup">
                <g id="Group" transform="translate(83.000000, 0.000000)">
                    <path d="M38.9,52 L34.1,54 L23.7,28.2 L6.1,35.3 L17.4,63.4 L57.4,47.2 L46.1,19.1 L28.5,26.2 L38.9,52 Z" id="Shape"></path>
                    <path d="M47.4,16.5 L44.3,8.9 L30.7,14.4 C33.6,12.2 38,8.1 36.7,3.5 C35.8,0.3 30.1,-0.6 27.7,1.6 C23.4,5.6 22.9,12.5 22.9,15.9 C22.5,15.8 22,15.8 21.4,16.1 C20.7,16.4 20.3,16.8 20.1,17.2 C17.8,14.8 12.6,10.1 6.7,10.1 C3.4,10.1 -8.52790061e-14,14.7 1.5,17.7 C3.8,21.9 9.8,21.9 13.4,21.4 L0.1,26.7 L3.2,34.3 L22.8,26.4 L20.4,20.6 L25.2,18.7 L27.6,24.5 L47.4,16.5 L47.4,16.5 Z M17.4,19.7 C14.2,19.4 2.9,18 5,14.2 C7.6,9.5 16.9,17.3 18.9,19.1 L17.4,19.7 L17.4,19.7 Z M25.3,16.6 C25.5,13.9 26.8,1.8 31.9,3.4 C36.1,4.7 28.9,13.6 26.8,16 L25.3,16.6 L25.3,16.6 Z" id="Shape"></path>
                </g>
                <g id="Group" transform="translate(196.000000, 13.000000)">
                    <path d="M5.6,7.3 C8,7.2 9.6,6 10.6,4.9 L11.2,4 C11.7,3.3 12.4,2.8 13.3,2.6 C14.2,2.4 15.1,2.6 15.8,3.1 L18.3,4.7 L43.6,8.7 C44,10.2 45.1,13 48.4,14.1 L46.9,23.7 L48.9,25 L51.4,9.3 C51.5,8.7 51.3,8.1 50.8,7.8 C50.6,7.6 50.4,7.5 50.1,7.5 L6.2,0.5 C5.3,0.4 4.5,1 4.4,1.8 L1.8,18.2 L4.6,13.9 L5.6,7.3 L5.6,7.3 Z" id="Shape"></path>
                    <path d="M27,10 L28.3,10.2 L28.2,11 C29.1,11.3 29.7,11.7 30,12.2 C30.1,12.3 30.1,12.4 30.2,12.6 L34.5,15.5 C34.3,11.8 31.6,8.7 27.8,8.1 C26.4,7.9 25.1,8 23.9,8.5 L27,10.6 L27,10 L27,10 Z" id="Shape"></path>
                    <path d="M52.2,30.7 C52.7,30 52.5,29.1 51.8,28.6 L48.6,26.5 L46.6,25.2 L34.3,17 L30.2,14.3 L25.4,11.1 L22.4,9.1 L15.2,4.3 L14.6,3.9 C14,3.5 13.4,3.6 12.8,3.9 C12.6,4 12.5,4.2 12.4,4.3 L4,17 L1.2,21.3 L1.1,21.4 C0.7,22 0.8,22.9 1.3,23.4 L1.6,23.7 C1.7,23.8 1.9,23.9 2.1,23.9 L38.5,48.2 C39.2,48.7 40.2,48.5 40.7,47.8 L52.2,30.7 L52.2,30.7 Z M40.9,41.4 C38.7,40.9 36.8,41.5 35.5,42.2 C35,42.5 34.6,42.8 34.4,43 L7.8,25.3 C7.8,25.2 7.8,25.1 7.9,25 C8,24.7 8,24.4 8.1,23.9 C8.1,23.6 8.2,23.2 8.2,22.8 C8.2,21.6 7.9,20.2 7,18.8 C6.8,18.4 6.5,18.1 6.2,17.8 L11.6,9.8 C12,10 12.5,10.1 12.9,10.2 C14.7,10.5 16.2,10.2 17.3,9.7 C17.8,9.5 18.2,9.2 18.6,9 L20.9,10.6 L24.2,12.8 L29.1,16.1 L33.9,19.3 L45.6,27.1 C45.5,27.5 45.5,28 45.4,28.5 L45.4,28.8 C45.4,29.5 45.5,30.2 45.8,31 C46,31.7 46.3,32.3 46.8,33 C47,33.3 47.3,33.7 47.7,34 L42.4,41.9 C41.8,41.6 41.4,41.5 40.9,41.4 L40.9,41.4 Z" id="Shape"></path>
                    <path id="Shape" d="M28.3,23.5 C28.3,23.6 28.3,23.6 28.3,23.5 L28.5,23.5 L28.3,23.5 L28.3,23.5 Z"></path>
                    <path d="M33.5,30.6 C33.8,30.1 34.1,29.6 34.3,29.1 C34.6,28.4 34.7,27.7 34.8,27 C35,24.8 34.3,22.5 32.7,20.8 C32.3,20.4 31.8,20 31.3,19.6 C30.8,19.2 30.2,19 29.6,18.8 C28.7,18.5 27.9,18.3 27,18.3 C26.4,18.3 25.9,18.3 25.3,18.5 C24.5,18.7 23.7,18.9 23,19.3 C22.1,19.8 21.3,20.4 20.7,21.2 C20.5,21.4 20.4,21.6 20.3,21.8 C19.7,22.6 19.4,23.5 19.2,24.5 C19,25.2 19,25.9 19,26.6 C19.1,29 20.4,31.3 22.5,32.8 C26.2,35.3 31.1,34.3 33.5,30.6 L33.5,30.6 Z M26.9,31.3 C26.2,31.4 25.5,31.2 24.6,30.7 L23.9,31.7 L22.9,31 L23.6,30 C22.9,29.4 22.5,28.8 22.4,28.2 C22.3,27.9 22.3,27.5 22.5,27.2 C22.6,26.9 22.8,26.6 23,26.2 L23.2,25.9 L25.2,27.3 L25,27.5 L25,27.5 C24.8,27.8 24.7,28.1 24.7,28.3 C24.7,28.5 24.9,28.7 25.1,28.9 C25.3,29.1 25.5,29.1 25.8,29 C26,28.9 26.2,28.8 26.3,28.6 C26.5,28.3 26.5,28.1 26.5,27.8 L26.5,27.7 C26.4,27.5 26.3,27.2 26.2,27 C26,26.7 25.8,26.4 25.6,26.1 C25.4,25.9 25.3,25.6 25.2,25.3 C25.2,25.2 25.1,25.1 25.1,25.1 C25,24.7 24.9,24.4 25,24 C25,23.8 25.1,23.7 25.1,23.5 C25.2,23.2 25.3,23 25.5,22.7 C26.5,21.3 27.8,21 29.3,21.7 L29.8,21 L30.8,21.7 L30.3,22.4 L30.4,22.5 C31,23.1 31.4,23.7 31.4,24.2 C31.5,24.8 31.3,25.5 30.8,26.2 L30.7,26.3 L30.4,26.1 L28.7,24.9 L28.8,24.7 C29,24.5 29.1,24.2 29.1,24 C29.1,23.8 29,23.6 28.8,23.4 C28.6,23.3 28.5,23.2 28.3,23.2 C28.2,23.2 28.1,23.2 28,23.3 C27.8,23.4 27.7,23.5 27.6,23.6 C27.4,23.9 27.4,24.1 27.4,24.4 C27.5,24.7 27.6,25 27.8,25.2 C27.9,25.3 28,25.5 28.1,25.6 C28.2,25.8 28.3,25.9 28.4,26.1 C28.6,26.4 28.8,26.7 28.9,27.1 C29,27.4 29,27.6 29,27.9 L29,28.2 C29,28.6 28.8,29.1 28.4,29.6 C28.2,30.8 27.6,31.2 26.9,31.3 L26.9,31.3 Z" id="Shape"></path>
                    <path id="Shape" d="M30.9,26.5 L31,26.4 L30.7,26.3 L30.9,26.5 L30.9,26.5 Z"></path>
                </g>
                <g id="Group" transform="translate(0.000000, 195.000000)">
                    <path d="M51.1,18 L53.5,22.6 L28.8,35.5 L37.6,52.3 L64.5,38.2 L44.4,0 L17.6,14.1 L26.4,30.9 L51.1,18 Z" id="Shape"></path>
                    <path d="M14.8,13 L7.5,16.8 L14.3,29.8 C11.8,27.1 7.3,23.1 2.9,24.9 C-0.2,26.1 -0.6,31.8 1.9,34 C6.3,37.8 13.2,37.7 16.6,37.3 C16.5,37.7 16.6,38.2 16.9,38.8 C17.3,39.5 17.7,39.8 18.1,40 C15.9,42.5 11.8,48.2 12.4,54.1 C12.8,57.4 17.7,60.3 20.4,58.5 C24.4,55.8 23.7,49.9 22.9,46.3 L29.5,59 L36.8,55.2 L27,36.4 L21.4,39.3 L19,34.7 L24.6,31.8 L14.8,13 L14.8,13 Z M21.1,42.5 C21.1,45.7 20.9,57.1 16.8,55.4 C11.8,53.3 18.7,43.2 20.3,41 L21.1,42.5 L21.1,42.5 Z M17.1,35 C14.4,35.1 2.2,35 3.3,29.7 C4.2,25.4 13.7,31.7 16.3,33.5 L17.1,35 L17.1,35 Z" id="Shape"></path>
                </g>
                <g id="Group" transform="translate(8.000000, 81.000000)">
                    <path d="M7.2,49.5 C6.8,47.1 5.5,45.7 4.3,44.7 L3.3,44.2 C2.5,43.8 1.9,43.1 1.7,42.2 C1.4,41.4 1.5,40.5 1.9,39.7 L3.3,37.1 L4.8,11.5 C6.3,11 8.9,9.6 9.7,6.2 L19.4,6.8 L20.5,4.7 L4.6,3.8 C4,3.8 3.5,4.1 3.2,4.6 C3.1,4.8 3,5.1 3,5.3 L0.4,49.7 C0.4,50.6 1,51.3 1.9,51.4 L18.4,52.4 L13.9,50 L7.2,49.5 L7.2,49.5 Z" id="Shape"></path>
                    <path d="M7.7,27.9 L7.8,26.6 L8.6,26.7 C8.8,25.8 9.1,25.1 9.6,24.8 C9.7,24.7 9.8,24.6 10,24.6 L12.4,20.1 C8.8,20.6 5.9,23.7 5.7,27.5 C5.6,28.9 5.9,30.2 6.5,31.4 L8.3,28.1 L7.7,27.9 L7.7,27.9 Z" id="Shape"></path>
                    <path d="M25.8,0.8 C25.1,0.4 24.1,0.7 23.7,1.4 L21.9,4.8 L20.8,6.9 L13.9,19.9 L11.6,24.3 L8.9,29.4 L7.2,32.6 L3.1,40.3 L2.8,40.9 C2.5,41.5 2.6,42.2 3,42.7 C3.1,42.9 3.3,43 3.5,43.1 L17,50.3 L21.5,52.7 L21.6,52.8 C22.3,53.2 23.1,53 23.6,52.4 C23.7,52.3 23.8,52.2 23.9,52 C24,51.8 24.1,51.7 24.1,51.5 L44.6,12.9 C45,12.1 44.7,11.2 43.9,10.8 L25.8,0.8 L25.8,0.8 Z M37.5,10.9 C37.2,13.2 38,15 38.8,16.2 C39.1,16.7 39.4,17 39.7,17.3 L24.7,45.6 L24.4,45.6 C24.1,45.6 23.7,45.5 23.3,45.5 C23,45.5 22.6,45.5 22.2,45.6 C21,45.7 19.6,46.1 18.4,47.2 C18.1,47.5 17.8,47.8 17.5,48.1 L9,43.6 C9.1,43.1 9.2,42.7 9.2,42.3 C9.4,40.5 8.8,39 8.2,37.9 C7.9,37.4 7.6,37 7.4,36.7 L8.7,34.2 L10.5,30.7 L13.3,25.5 L16,20.4 L22.6,8 C23,8 23.5,8.1 24,8 L24.3,8 C25,7.9 25.7,7.7 26.5,7.4 C27.1,7.1 27.8,6.7 28.4,6.2 C28.7,5.9 29,5.6 29.3,5.2 L37.7,9.7 C37.7,10.1 37.6,10.5 37.5,10.9 L37.5,10.9 Z" id="Shape"></path>
                    <path id="Shape" d="M21,25.2 C21,25.3 21.1,25.3 21,25.2 L21,25 L21,25.2 L21,25.2 Z"></path>
                    <path d="M27.6,19.4 C27.1,19.1 26.5,18.9 26,18.8 C25.3,18.6 24.6,18.5 23.9,18.5 C21.7,18.5 19.5,19.5 18,21.2 C17.6,21.6 17.3,22.1 17,22.7 C16.7,23.3 16.5,23.8 16.3,24.4 C16.1,25.3 16,26.2 16.1,27.1 C16.1,27.7 16.3,28.2 16.4,28.7 C16.6,29.5 17,30.2 17.5,30.9 C18.1,31.7 18.8,32.4 19.7,33 C19.9,33.1 20.1,33.3 20.3,33.4 C21.2,33.9 22.1,34.2 23.1,34.3 C23.8,34.4 24.5,34.4 25.2,34.3 C27.6,33.9 29.8,32.5 31,30.2 C32.9,26.2 31.4,21.4 27.6,19.4 L27.6,19.4 Z M28.9,25.9 C29.1,26.6 28.9,27.3 28.6,28.2 L29.7,28.8 L29.1,29.9 L28,29.3 C27.5,30 26.9,30.5 26.4,30.7 C26.1,30.8 25.8,30.8 25.4,30.7 C25.1,30.6 24.8,30.5 24.4,30.3 L24.1,30.1 L25.3,27.9 L25.5,28 L25.5,28 C25.9,28.2 26.1,28.3 26.4,28.2 C26.6,28.1 26.8,28 26.9,27.8 C27,27.6 27.1,27.3 27,27.1 C26.9,26.9 26.8,26.7 26.5,26.6 C26.2,26.4 26,26.4 25.7,26.5 L25.6,26.5 C25.4,26.6 25.1,26.7 24.9,26.9 C24.6,27.1 24.4,27.3 24.1,27.6 C23.9,27.8 23.6,27.9 23.4,28.1 C23.3,28.1 23.3,28.2 23.2,28.2 C22.9,28.4 22.5,28.4 22.1,28.4 C21.9,28.4 21.8,28.4 21.6,28.3 C21.3,28.2 21,28.1 20.7,27.9 C19.2,27 18.7,25.8 19.3,24.2 L18.6,23.8 L19.2,22.7 L19.9,23.1 L20,23 C20.5,22.3 21,21.9 21.6,21.8 C22.2,21.7 22.9,21.8 23.6,22.2 C23.6,22.2 23.7,22.2 23.7,22.3 L23.5,22.6 L22.5,24.4 L22.3,24.3 C22.1,24.2 21.8,24.1 21.6,24.1 C21.4,24.1 21.2,24.2 21.1,24.4 C21,24.6 21,24.7 21,24.9 C21,25 21.1,25.1 21.1,25.2 C21.2,25.4 21.3,25.5 21.5,25.6 C21.8,25.8 22.1,25.8 22.3,25.7 C22.6,25.6 22.8,25.5 23.1,25.3 C23.2,25.2 23.4,25.1 23.5,25 C23.7,24.9 23.8,24.7 24,24.6 C24.3,24.3 24.6,24.1 25,24 C25.3,23.9 25.5,23.8 25.8,23.8 L26.1,23.8 C26.5,23.8 27,23.9 27.5,24.2 C28.3,24.7 28.7,25.3 28.9,25.9 L28.9,25.9 Z" id="Shape"></path>
                    <path id="Shape" d="M23.7,22.4 C23.7,22.4 23.6,22.4 23.6,22.3 L23.6,22.6 L23.7,22.4 L23.7,22.4 Z"></path>
                </g>
                <g id="Group" transform="translate(193.000000, 270.000000)">
                    <path d="M18.8,11.7 L23.6,9.7 L34,35.6 L51.6,28.5 L40.3,0.3 L0.2,16.5 L11.6,44.6 L29.2,37.5 L18.8,11.7 Z" id="Shape"></path>
                    <path d="M10.3,47.2 L13.4,54.8 L27,49.3 C24.1,51.5 19.7,55.6 21,60.2 C21.9,63.4 27.6,64.3 30,62.1 C34.3,58.1 34.8,51.2 34.8,47.8 C35.2,47.9 35.7,47.9 36.3,47.6 C37,47.3 37.4,46.9 37.6,46.5 C39.9,48.9 45.1,53.6 51,53.6 C54.3,53.6 57.7,49 56.2,46 C53.9,41.8 47.9,41.8 44.3,42.3 L57.6,37 L54.5,29.4 L34.9,37.3 L37.3,43.1 L32.5,45 L30.1,39.2 L10.3,47.2 L10.3,47.2 Z M40.3,44 C43.5,44.3 54.8,45.7 52.7,49.5 C50.1,54.2 40.8,46.4 38.8,44.6 L40.3,44 L40.3,44 Z M32.4,47.2 C32.2,49.9 30.9,62 25.8,60.4 C21.6,59.1 28.8,50.2 30.9,47.8 L32.4,47.2 L32.4,47.2 Z" id="Shape"></path>
                </g>
                <g id="Group" transform="translate(80.000000, 276.000000)">
                    <path d="M47.1,41.4 C44.7,41.5 43.1,42.7 42.1,43.8 L41.5,44.7 C41,45.4 40.3,45.9 39.4,46.1 C38.5,46.3 37.6,46.1 36.9,45.6 L34.4,44 L9.1,40 C8.7,38.5 7.6,35.7 4.3,34.6 L5.8,25 L3.8,23.7 L1.3,39.4 C1.2,40 1.4,40.6 1.9,40.9 C2.1,41.1 2.3,41.2 2.6,41.2 L46.5,48.2 C47.4,48.3 48.2,47.7 48.3,46.9 L50.9,30.5 L48.1,34.8 L47.1,41.4 L47.1,41.4 Z" id="Shape"></path>
                    <path d="M25.6,38.7 L24.3,38.5 L24.4,37.7 C23.5,37.4 22.9,37 22.6,36.5 C22.5,36.4 22.5,36.3 22.4,36.1 L18.1,33.2 C18.3,36.9 21,40 24.8,40.6 C26.2,40.8 27.5,40.7 28.7,40.2 L25.6,38.1 L25.6,38.7 L25.6,38.7 Z" id="Shape"></path>
                    <path d="M0.5,18 C-3.13082893e-14,18.7 0.2,19.6 0.9,20.1 L4.1,22.2 L6.1,23.5 L18.4,31.7 L22.5,34.4 L27.3,37.6 L30.3,39.6 L37.5,44.4 L38.1,44.8 C38.7,45.2 39.3,45.1 39.9,44.8 C40.1,44.7 40.2,44.5 40.3,44.4 L48.8,31.7 L51.6,27.4 L51.7,27.3 C52.1,26.7 52,25.8 51.5,25.3 C51.4,25.2 51.3,25.1 51.2,25 C51.1,24.9 50.9,24.8 50.7,24.8 L14.3,0.5 C13.6,2.39308573e-13 12.6,0.2 12.1,0.9 L0.5,18 L0.5,18 Z M11.7,7.3 C13.9,7.8 15.8,7.2 17.1,6.5 C17.6,6.2 18,5.9 18.2,5.7 L44.8,23.4 C44.8,23.5 44.8,23.6 44.7,23.7 C44.6,24 44.6,24.3 44.5,24.8 C44.5,25.1 44.4,25.5 44.4,25.9 C44.4,27.1 44.7,28.5 45.6,29.9 C45.8,30.3 46.1,30.6 46.4,30.9 L41,38.9 C40.6,38.7 40.1,38.6 39.7,38.5 C37.9,38.2 36.4,38.5 35.3,39 C34.8,39.2 34.4,39.5 34,39.7 L31.7,38.1 L28.4,35.9 L23.5,32.6 L18.7,29.4 L7,21.6 C7.1,21.2 7.1,20.7 7.2,20.2 L7.2,19.9 C7.2,19.2 7.1,18.5 6.8,17.7 C6.6,17 6.3,16.4 5.8,15.7 C5.6,15.4 5.3,15 4.9,14.7 L10.2,6.8 C10.9,7.1 11.3,7.2 11.7,7.3 L11.7,7.3 Z" id="Shape"></path>
                    <path id="Shape" d="M24.3,25.2 L24.3,25.2 L24.1,25.2 L24.3,25.2 L24.3,25.2 Z"></path>
                    <path d="M19.2,18.1 C18.9,18.6 18.6,19.1 18.4,19.6 C18.1,20.3 18,21 17.9,21.7 C17.7,23.9 18.4,26.2 20,27.9 C20.4,28.3 20.9,28.7 21.4,29.1 C21.9,29.5 22.5,29.7 23.1,29.9 C24,30.2 24.8,30.4 25.7,30.4 C26.3,30.4 26.8,30.4 27.4,30.2 C28.2,30 29,29.8 29.7,29.4 C30.6,28.9 31.4,28.3 32,27.5 C32.2,27.3 32.3,27.1 32.4,26.9 C33,26.1 33.3,25.2 33.5,24.2 C33.7,23.5 33.7,22.8 33.7,22.1 C33.6,19.7 32.3,17.4 30.2,15.9 C26.5,13.5 21.6,14.4 19.2,18.1 L19.2,18.1 Z M25.8,17.4 C26.5,17.3 27.2,17.5 28.1,18 L28.8,17 L29.8,17.7 L29.1,18.7 C29.8,19.3 30.2,19.9 30.3,20.5 C30.4,20.8 30.4,21.2 30.2,21.5 C30.1,21.8 29.9,22.1 29.7,22.5 L29.5,22.8 L27.5,21.4 L27.7,21.2 L27.7,21.2 C27.9,20.9 28,20.6 28,20.4 C28,20.2 27.8,20 27.6,19.8 C27.4,19.6 27.2,19.6 26.9,19.7 C26.7,19.8 26.5,19.9 26.4,20.1 C26.2,20.4 26.2,20.6 26.2,20.9 L26.2,21 C26.3,21.2 26.4,21.5 26.5,21.7 C26.7,22 26.9,22.3 27.1,22.6 C27.3,22.8 27.4,23.1 27.5,23.4 C27.5,23.5 27.6,23.6 27.6,23.6 C27.7,24 27.8,24.3 27.7,24.7 C27.7,24.9 27.6,25 27.6,25.2 C27.5,25.5 27.4,25.7 27.2,26 C26.2,27.4 24.9,27.7 23.4,27 L22.9,27.7 L21.9,27 L22.4,26.3 L22.3,26.2 C21.7,25.6 21.3,25 21.3,24.5 C21.2,23.9 21.4,23.2 21.9,22.5 L22,22.4 L22.3,22.6 L24,23.8 L23.9,24 C23.7,24.2 23.6,24.5 23.6,24.7 C23.6,24.9 23.7,25.1 23.9,25.3 C24.1,25.4 24.2,25.5 24.4,25.5 C24.5,25.5 24.6,25.5 24.7,25.4 C24.9,25.3 25,25.2 25.1,25.1 C25.3,24.8 25.3,24.6 25.3,24.3 C25.2,24 25.1,23.7 24.9,23.5 C24.8,23.4 24.7,23.2 24.6,23.1 C24.5,22.9 24.4,22.8 24.3,22.6 C24.1,22.3 23.9,22 23.8,21.6 C23.7,21.3 23.7,21.1 23.7,20.8 L23.7,20.5 C23.7,20.1 23.9,19.6 24.3,19.1 C24.5,17.9 25.1,17.5 25.8,17.4 L25.8,17.4 Z" id="Shape"></path>
                    <path id="Shape" d="M21.8,22.2 L21.7,22.3 L22,22.4 L21.8,22.2 L21.8,22.2 Z"></path>
                </g>
                <g id="Group" transform="translate(265.000000, 80.000000)">
                    <path d="M13.6,41.8 L11.2,37.2 L35.9,24.2 L27,7.4 L0.2,21.5 L20.3,59.7 L47.1,45.7 L38.3,28.8 L13.6,41.8 Z" id="Shape"></path>
                    <path d="M49.8,46.7 L57.1,42.9 L50.3,29.9 C52.8,32.6 57.3,36.6 61.7,34.8 C64.8,33.6 65.2,27.9 62.7,25.7 C58.3,21.9 51.4,22 48,22.4 C48.1,22 48,21.5 47.7,20.9 C47.3,20.2 46.9,19.9 46.5,19.7 C48.7,17.2 52.8,11.5 52.2,5.6 C51.8,2.3 46.9,-0.6 44.2,1.2 C40.2,3.9 40.9,9.8 41.7,13.4 L35.1,0.7 L27.8,4.5 L37.6,23.3 L43.2,20.4 L45.6,25 L40,27.9 L49.8,46.7 L49.8,46.7 Z M43.6,17.2 C43.6,14 43.8,2.6 47.9,4.3 C52.9,6.4 46,16.5 44.4,18.7 L43.6,17.2 L43.6,17.2 Z M47.6,24.7 C50.3,24.6 62.5,24.7 61.4,30 C60.5,34.3 51,28 48.4,26.2 L47.6,24.7 L47.6,24.7 Z" id="Shape"></path>
                </g>
                <g id="Group" transform="translate(277.000000, 198.000000)">
                    <path d="M38.5,4.2 C38.9,6.6 40.2,8 41.4,9 L42.4,9.5 C43.2,9.9 43.8,10.6 44,11.5 C44.3,12.3 44.2,13.2 43.8,14 L42.4,16.6 L40.9,42.2 C39.4,42.7 36.8,44.1 36,47.5 L26.3,46.9 L25.2,49 L41.1,49.9 C41.7,49.9 42.2,49.6 42.5,49.1 C42.6,48.9 42.7,48.6 42.7,48.4 L45.3,4 C45.3,3.1 44.7,2.4 43.8,2.3 L27.3,1.3 L31.8,3.7 L38.5,4.2 L38.5,4.2 Z" id="Shape"></path>
                    <path d="M38,25.8 L37.9,27.1 L37.1,27 C36.9,27.9 36.6,28.6 36.1,28.9 C36,29 35.9,29.1 35.7,29.1 L33.3,33.6 C36.9,33.1 39.8,30 40,26.2 C40.1,24.8 39.8,23.5 39.2,22.3 L37.4,25.6 L38,25.8 L38,25.8 Z" id="Shape"></path>
                    <path d="M19.9,52.9 C20.6,53.3 21.6,53 22,52.3 L23.8,48.9 L24.9,46.8 L31.8,33.8 L34.1,29.4 L36.8,24.3 L38.5,21.1 L42.6,13.4 L42.9,12.8 C43.2,12.2 43.1,11.5 42.7,11 C42.6,10.8 42.4,10.7 42.2,10.6 L28.7,3.4 L24.2,1 L24.1,0.9 C23.4,0.5 22.6,0.7 22.1,1.3 C22,1.4 21.9,1.5 21.8,1.7 C21.7,1.9 21.6,2 21.6,2.2 L1.1,40.8 C0.7,41.6 1,42.5 1.8,42.9 L19.9,52.9 L19.9,52.9 Z M8.2,42.8 C8.5,40.5 7.7,38.7 6.9,37.5 C6.6,37 6.3,36.7 6,36.4 L21,8.1 L21.3,8.1 C21.6,8.1 22,8.2 22.4,8.2 C22.7,8.2 23.1,8.2 23.5,8.1 C24.7,8 26.1,7.6 27.3,6.5 L28.2,5.6 L36.7,10.1 C36.6,10.6 36.5,11 36.5,11.4 C36.3,13.2 36.9,14.7 37.5,15.8 C37.8,16.3 38.1,16.7 38.3,17 L37,19.5 L35.2,23 L32.4,28.2 L29.7,33.3 L23.1,45.7 C22.7,45.7 22.2,45.6 21.7,45.7 L21.4,45.7 C20.7,45.8 20,46 19.2,46.3 C18.6,46.6 17.9,47 17.3,47.5 C17,47.8 16.7,48.1 16.4,48.5 L8,44 C8,43.6 8.1,43.2 8.2,42.8 L8.2,42.8 Z" id="Shape"></path>
                    <path id="Shape" d="M24.7,28.5 C24.6,28.4 24.6,28.4 24.7,28.5 L24.7,28.7 L24.7,28.5 L24.7,28.5 Z"></path>
                    <path d="M18.1,34.3 C18.6,34.6 19.2,34.8 19.7,34.9 C20.4,35.1 21.1,35.2 21.8,35.2 C24,35.2 26.2,34.2 27.7,32.5 C28.1,32.1 28.4,31.6 28.7,31 C29,30.4 29.2,29.9 29.4,29.3 C29.6,28.4 29.7,27.5 29.6,26.6 C29.6,26 29.4,25.5 29.3,25 C29.1,24.2 28.7,23.5 28.2,22.8 C27.6,22 26.9,21.3 26,20.7 C25.8,20.6 25.6,20.4 25.4,20.3 C24.5,19.8 23.6,19.5 22.6,19.4 C21.9,19.3 21.2,19.3 20.5,19.4 C18.1,19.8 15.9,21.2 14.7,23.5 C12.8,27.5 14.2,32.3 18.1,34.3 L18.1,34.3 Z M16.8,27.8 C16.6,27.1 16.8,26.4 17.1,25.5 L16,24.9 L16.6,23.8 L17.7,24.4 C18.2,23.7 18.8,23.2 19.3,23 C19.6,22.9 19.9,22.9 20.3,23 C20.6,23.1 20.9,23.2 21.3,23.4 L21.6,23.6 L20.4,25.8 L20.2,25.7 L20.2,25.7 C19.8,25.5 19.6,25.4 19.3,25.5 C19.1,25.6 18.9,25.7 18.8,25.9 C18.7,26.1 18.6,26.4 18.7,26.6 C18.8,26.8 18.9,27 19.2,27.1 C19.5,27.3 19.7,27.3 20,27.2 L20.1,27.2 C20.3,27.1 20.6,27 20.8,26.8 C21.1,26.6 21.3,26.4 21.6,26.1 C21.8,25.9 22.1,25.8 22.3,25.6 C22.4,25.6 22.4,25.5 22.5,25.5 C22.8,25.3 23.2,25.3 23.6,25.3 C23.8,25.3 23.9,25.3 24.1,25.4 C24.4,25.5 24.7,25.6 25,25.8 C26.5,26.7 27,27.9 26.4,29.5 L27.1,29.9 L26.5,31 L25.8,30.6 L25.7,30.7 C25.2,31.4 24.7,31.8 24.1,31.9 C23.5,32 22.8,31.9 22.1,31.5 C22.1,31.5 22,31.5 22,31.4 L22.2,31.1 L23.2,29.3 L23.4,29.4 C23.6,29.5 23.9,29.6 24.1,29.6 C24.3,29.6 24.5,29.5 24.6,29.3 C24.7,29.1 24.7,29 24.7,28.8 C24.7,28.7 24.6,28.6 24.6,28.5 C24.5,28.3 24.4,28.2 24.2,28.1 C23.9,27.9 23.6,27.9 23.4,28 C23.1,28.1 22.9,28.2 22.6,28.4 C22.5,28.5 22.3,28.6 22.2,28.7 C22,28.8 21.9,29 21.7,29.1 C21.4,29.4 21.1,29.6 20.7,29.7 C20.4,29.8 20.2,29.9 19.9,29.9 L19.6,29.9 C19.2,29.9 18.7,29.8 18.2,29.5 C17.4,29 16.9,28.5 16.8,27.8 L16.8,27.8 Z" id="Shape"></path>
                    <path id="Shape" d="M21.9,31.3 C21.9,31.3 22,31.3 22,31.4 L22,31.1 L21.9,31.3 L21.9,31.3 Z"></path>
                </g>
            </g>
        </g>
    </g>
</svg>